<svg version="1.1" xmlns="http://www.w3.org/2000/svg" xmlns:xlink="http://www.w3.org/1999/xlink" width="512.000000pt" height="512.000000pt" viewBox="0,0,256,256"><g fill="#ffffff" fill-rule="nonzero" stroke="none" stroke-width="1" stroke-linecap="butt" stroke-linejoin="miter" stroke-miterlimit="10" stroke-dasharray="" stroke-dashoffset="0" font-family="none" font-weight="none" font-size="none" text-anchor="none" style="mix-blend-mode: normal"><g transform="scale(0.5,0.5)"><g transform="translate(0,512) scale(0.1,-0.1)"><path d="M340,2815v-2305h-170h-170v-255v-255h2560h2560v255v255h-170h-170v2305v2305h-2220h-2220zM4610,2730v-2220h-2050h-2050v2220v2220h2050h2050zM4950,255v-85h-2390h-2390v85v85h2390h2390z"></path><path d="M625,4835l-25,-24v-2081v-2081l25,-24l24,-25h1911h1911l24,25l25,24v2081v2081l-25,24l-24,25h-1911h-1911zM4350,2730v-1960h-1790h-1790v1960v1960h1790h1790z"></path><path d="M965,4494l-25,-27v-799v-799l25,-24l24,-25h719h719l21,23l22,23v803v802l-25,24l-24,25h-716h-716zM2300,3670v-680h-595h-595v680v680h595h595z"></path><path d="M2675,4495l-25,-24v-804v-804l23,-21l23,-22h718h717l24,25l25,24v799v799l-25,27l-24,26h-716h-716zM4010,3670v-680h-595h-595v680v680h595h595z"></path><path d="M993,2636c-17,-8 -36,-23 -42,-35c-8,-13 -11,-265 -11,-814v-794l26,-27l27,-26h714h714l24,25l25,24v804v804l-26,24l-26,24l-696,2c-578,2 -702,0 -729,-11zM2300,1790v-680h-595h-595v680v680h595h595z"></path><path d="M2715,2643c-11,-3 -30,-14 -42,-26l-23,-20v-804v-804l25,-24l24,-25h714h714l27,26l26,27v794c0,550 -3,801 -11,815c-26,48 -32,48 -756,47c-373,-1 -687,-3 -698,-6zM4010,1790v-680h-595h-595v680v680h595h595z"></path></g></g></g></svg>