<svg version="1.1" xmlns="http://www.w3.org/2000/svg" xmlns:xlink="http://www.w3.org/1999/xlink" width="512.000000pt" height="512.000000pt" viewBox="0,0,256,256"><g fill="#ffffff" fill-rule="nonzero" stroke="none" stroke-width="1" stroke-linecap="butt" stroke-linejoin="miter" stroke-miterlimit="10" stroke-dasharray="" stroke-dashoffset="0" font-family="none" font-weight="none" font-size="none" text-anchor="none" style="mix-blend-mode: normal"><g transform="translate(-0.00075,-0.01847) scale(0.5,0.5)"><g transform="translate(0,512) scale(0.1,-0.1)"><path d="M3928,5105c-313,-43 -597,-169 -838,-371c-41,-34 -751,-739 -1577,-1566c-1357,-1359 -1502,-1507 -1509,-1541c-13,-76 34,-158 102,-176l29,-7l3,-422l2,-422h150h150v538v537l248,248c136,136 250,247 255,247c4,0 7,-169 7,-375v-376l148,3l147,3l3,530l2,530l260,260l260,260v-378v-377h150h150v528v527l273,273c149,149 275,272 280,272c4,0 7,-175 7,-390v-390h139h140l6,228c3,125 8,372 11,549l5,321l167,164c92,90 199,187 237,215l70,53l3,-350l2,-350h150h150v425v424l53,16c75,22 190,43 280,51l77,7v-462v-461h150h150v460v460h200h200v-460v-460h150h150v550c0,532 -1,552 -20,590c-13,26 -34,47 -60,60c-38,19 -57,20 -527,19c-345,-1 -517,-5 -585,-14z"></path><path d="M3317,3586c-21,-8 -48,-22 -59,-33c-46,-40 -48,-62 -48,-433v-350h-352c-394,0 -400,-1 -445,-69c-23,-34 -23,-36 -23,-392v-358l-364,-3c-353,-3 -365,-4 -393,-24c-15,-12 -37,-36 -48,-55c-19,-32 -20,-55 -23,-391l-3,-358h-358c-501,0 -461,40 -461,-467v-353h-310c-292,0 -313,-1 -350,-20c-45,-23 -80,-80 -80,-130c0,-48 33,-103 78,-128l40,-22h2441c2428,0 2442,0 2481,20c26,13 47,34 60,60c20,39 20,55 20,1715c0,1806 3,1713 -51,1762c-13,11 -42,26 -64,32c-64,18 -1638,14 -1688,-3z"></path></g></g></g></svg>