<svg version="1.1" xmlns="http://www.w3.org/2000/svg" xmlns:xlink="http://www.w3.org/1999/xlink" width="512.000000pt" height="512.000000pt" viewBox="0,0,256,256"><g fill="#ffffff" fill-rule="nonzero" stroke="none" stroke-width="1" stroke-linecap="butt" stroke-linejoin="miter" stroke-miterlimit="10" stroke-dasharray="" stroke-dashoffset="0" font-family="none" font-weight="none" font-size="none" text-anchor="none" style="mix-blend-mode: normal"><g transform="translate(0.08438,0.06715) scale(0.5,0.5)"><g transform="translate(0,512) scale(0.1,-0.1)"><path d="M95,5106c-41,-18 -83,-69 -90,-109c-3,-18 -4,-1126 -3,-2464l3,-2432l21,-27c11,-15 33,-37 48,-48l27,-21h2459h2459l27,21c15,11 37,33 48,48l21,27v2459v2459l-21,27c-11,15 -33,37 -48,48l-27,21l-2447,2c-2019,2 -2452,0 -2477,-11zM4960,2560v-2400h-2400h-2400v2400v2400h2400h2400z"></path><path d="M335,4866c-41,-18 -83,-69 -90,-109c-3,-18 -4,-1018 -3,-2224l3,-2192l21,-27c11,-15 33,-37 48,-48l27,-21h2219h2219l27,21c15,11 37,33 48,48l21,27v2219v2219l-21,27c-11,15 -33,37 -48,48l-27,21l-2207,2c-1820,2 -2212,0 -2237,-11zM2480,2560v-2160h-1040h-1040v2160v2160h1040h1040zM4720,2560v-2160h-1040h-1040v2160v2160h1040h1040z"></path><path d="M1462,3177c-259,-259 -472,-477 -472,-482c0,-13 92,-105 105,-105c6,0 224,214 485,475l475,475l-55,55c-30,30 -57,55 -60,55c-3,0 -218,-213 -478,-473z"></path><path d="M1462,2697c-435,-435 -792,-797 -792,-802c0,-13 92,-105 105,-105c6,0 368,358 805,795l795,795l-55,55c-30,30 -57,55 -60,55c-3,0 -362,-357 -798,-793z"></path><path d="M505,2935l-25,-24v-391v-391l25,-24c13,-14 35,-25 47,-25c44,0 292,89 311,111c15,19 17,51 17,329c0,278 -2,310 -17,329c-19,22 -267,111 -311,111c-12,0 -34,-11 -47,-25zM715,2520v-223l-37,-13l-38,-13v249v249l38,-13l37,-13z"></path><path d="M1422,2177c-237,-237 -432,-437 -432,-442c0,-13 92,-105 105,-105c6,0 206,196 445,435l435,435l-55,55c-30,30 -57,55 -60,55c-3,0 -200,-195 -438,-433z"></path><path d="M3542,3177c-259,-259 -472,-477 -472,-482c0,-13 92,-105 105,-105c6,0 224,214 485,475l475,475l-55,55c-30,30 -57,55 -60,55c-3,0 -218,-213 -478,-473z"></path><path d="M3542,2697c-435,-435 -792,-797 -792,-802c0,-13 92,-105 105,-105c6,0 368,358 805,795l795,795l-55,55c-30,30 -57,55 -60,55c-3,0 -362,-357 -798,-793z"></path><path d="M4405,2914c-80,-27 -137,-52 -147,-65c-16,-19 -18,-51 -18,-329c0,-278 2,-310 18,-329c18,-22 266,-111 310,-111c12,0 34,11 47,25l25,24v391v391l-25,24c-33,34 -57,31 -210,-21zM4480,2521v-250l-37,13l-38,13v223v223l35,13c19,7 36,13 38,13c1,1 2,-111 2,-248z"></path><path d="M3502,2177c-237,-237 -432,-437 -432,-442c0,-13 92,-105 105,-105c6,0 206,196 445,435l435,435l-55,55c-30,30 -57,55 -60,55c-3,0 -200,-195 -438,-433z"></path></g></g></g></svg>