<svg version="1.1" xmlns="http://www.w3.org/2000/svg" xmlns:xlink="http://www.w3.org/1999/xlink" width="512.000000pt" height="512.000000pt" viewBox="0,0,256,256"><g fill="#ffffff" fill-rule="nonzero" stroke="none" stroke-width="1" stroke-linecap="butt" stroke-linejoin="miter" stroke-miterlimit="10" stroke-dasharray="" stroke-dashoffset="0" font-family="none" font-weight="none" font-size="none" text-anchor="none" style="mix-blend-mode: normal"><g transform="translate(0.125,0) scale(0.5,0.5)"><g transform="translate(0,512) scale(0.1,-0.1)"><path d="M235,5108c-49,-17 -92,-55 -114,-101l-21,-43v-1891v-1890l23,-44c13,-24 43,-57 66,-74l43,-30l1391,-3c1273,-2 1392,-4 1409,-19c17,-15 18,-42 18,-415c0,-255 4,-415 11,-442c14,-56 62,-114 113,-137c37,-17 72,-19 367,-19c363,0 362,0 375,67c5,26 1,37 -19,57l-26,26h-314c-255,0 -317,3 -333,14c-18,14 -19,33 -24,449l-5,434l-29,41c-18,26 -47,51 -79,67l-51,25h-413h-413v85v86l438,-3l437,-3l67,-32c81,-38 146,-102 185,-181l28,-57l5,-358l5,-359l24,-19c22,-18 48,-19 636,-19c604,0 613,0 639,21l26,20v1060v1059h85h85v-1149c0,-1032 -2,-1151 -16,-1165c-13,-14 -66,-16 -423,-16c-398,0 -409,-1 -435,-21c-36,-29 -36,-80 1,-109c26,-20 33,-21 452,-18c410,3 428,4 466,24c22,11 54,40 70,63l30,43v2428v2428l-30,43c-16,23 -48,52 -70,63l-40,21l-1818,3l-1818,2l-24,-24c-32,-32 -32,-70 0,-101l24,-25h1800c1623,0 1801,-2 1815,-16c14,-14 16,-86 16,-645v-629h-85h-85v539v540l-26,20l-27,21h-2087h-2087l-27,-21l-26,-20v-1683v-1683l23,-21c23,-22 30,-22 300,-22h277v-85v-85h-369c-323,0 -372,2 -385,16c-14,14 -16,198 -16,1879c0,1681 2,1865 16,1879c13,14 61,16 370,16h355l24,25c32,31 32,69 0,100l-24,25l-363,-1c-225,0 -374,-5 -393,-11zM860,4001v-648l23,-34c12,-18 34,-39 47,-46c19,-10 135,-13 473,-13h447l38,34l37,34l3,661l2,661h200h200v-618v-618l-33,-12c-32,-11 -57,-45 -57,-76c0,-7 9,-25 21,-40c20,-26 22,-26 147,-26c115,0 128,2 149,22c45,42 19,111 -47,125l-30,6v618v619h114h115l3,-247c3,-235 4,-250 26,-290c33,-63 74,-106 134,-139c47,-26 62,-29 138,-29c70,0 93,4 130,24c61,32 107,76 138,136c27,50 27,51 30,298l3,247h93h93l6,-74c10,-130 68,-221 171,-268c48,-22 63,-23 261,-23c233,0 260,6 337,74c60,52 88,121 88,213v78h95h95v-1305v-1305h-180c-159,0 -185,-2 -219,-19c-50,-26 -97,-81 -110,-128c-7,-24 -11,-208 -11,-499v-460l28,-55c20,-40 39,-61 76,-84l49,-30l184,-3l183,-3v-145v-144h-515h-515v288c0,319 -5,358 -63,466c-38,71 -123,161 -188,199c-96,56 -152,69 -321,75l-158,4v534v534h455h455l7,-30c6,-33 45,-70 73,-70c10,0 29,9 44,21c26,20 26,21 26,161c0,162 -6,178 -70,178c-44,0 -66,-21 -75,-72l-7,-38h-509c-496,0 -510,-1 -529,-20c-20,-20 -20,-33 -20,-610v-590h-1035h-1035v110v110h638c710,0 681,-3 729,69c23,33 23,39 23,321c0,282 0,288 -23,321c-48,72 -19,69 -729,69h-638v90v90h685c683,0 685,0 685,-20c0,-29 44,-70 75,-70c14,0 37,11 50,25c24,23 25,30 25,145c0,115 -1,122 -25,145c-13,14 -36,25 -50,25c-33,0 -75,-42 -75,-75v-25h-685h-685v910v910h145h145zM1780,4560v-90h-385h-385v90v90h385h385zM4210,4590c0,-73 -18,-113 -63,-137c-27,-15 -59,-18 -217,-18c-161,0 -190,2 -213,18c-42,27 -59,62 -65,132l-5,65h282h281zM3160,4418c0,-234 -5,-260 -63,-302c-40,-29 -134,-29 -173,-1c-59,44 -64,69 -64,302v213h150h150zM1780,3865v-455h-385h-385v455v455h385h385zM4870,3080v-451l-82,3l-83,3l-3,435c-1,239 0,441 3,448c3,8 30,12 85,12h80zM750,2110v-240h-90h-90v240v240h90h90zM1810,2110v-240h-455h-455v240v240h455h455zM4550,1400v-490h-162c-152,0 -163,1 -185,22l-23,21v447c0,387 2,448 16,468c15,21 21,22 185,22h169zM2060,1265v-85h-445h-445v85v85h445h445z"></path><path d="M3877,3796c-233,-87 -247,-395 -22,-497c59,-27 157,-25 220,5c94,43 147,128 149,236c1,106 -52,193 -147,242c-52,26 -149,33 -200,14zM4035,3630c82,-77 35,-200 -75,-200c-80,0 -135,71 -110,144c11,33 42,68 70,79c28,12 92,-1 115,-23z"></path></g></g></g></svg>