<svg version="1.1" xmlns="http://www.w3.org/2000/svg" xmlns:xlink="http://www.w3.org/1999/xlink" width="512.000000pt" height="512.000000pt" viewBox="0,0,256,256"><g fill="#ffffff" fill-rule="nonzero" stroke="none" stroke-width="1" stroke-linecap="butt" stroke-linejoin="miter" stroke-miterlimit="10" stroke-dasharray="" stroke-dashoffset="0" font-family="none" font-weight="none" font-size="none" text-anchor="none" style="mix-blend-mode: normal"><g transform="translate(0.03662,-0.07021) scale(0.5,0.5)"><g transform="translate(0,512) scale(0.1,-0.1)"><path d="M574,5110c-74,-30 -69,-142 7,-169l29,-10v-2370v-2371l-35,-14c-40,-17 -65,-62 -57,-102c2,-13 18,-35 34,-49l30,-25h1979h1979l30,28c22,19 31,36 32,60c1,39 -30,86 -61,90l-21,3v2380c0,2141 2,2379 15,2379c9,0 27,12 40,26c33,35 33,84 1,121l-24,28l-1979,2c-1101,1 -1987,-2 -1999,-7zM4330,2560v-2370h-1210h-1210v565c0,633 2,615 -68,635c-25,8 -161,10 -419,8l-383,-3l-27,-28l-28,-27l-3,-575l-3,-575h-94h-95v2370v2370h1770h1770zM1720,700v-510h-275h-275v235c0,221 1,235 18,235c22,0 57,36 66,67c11,34 -17,88 -53,102l-31,13v184v184h275h275z"></path><path d="M1034,4736c-53,-23 -55,-39 -52,-419l3,-347l28,-27l27,-28l378,-3c207,-2 392,0 411,3c18,4 44,18 57,32l24,26v354c0,224 -4,361 -10,374c-26,47 -44,49 -452,49c-298,-1 -390,-4 -414,-14zM1350,4330v-230h-90h-90v230v230h90h90zM1730,4330v-230h-95h-95v230v230h95h95z"></path><path d="M2165,4741c-11,-5 -29,-19 -40,-31c-19,-21 -20,-36 -20,-381v-359l28,-27l27,-28l378,-3c207,-2 392,0 411,3c18,4 44,17 57,30l24,24v360v360l-24,28l-24,28l-399,2c-219,1 -407,-2 -418,-6zM2480,4330v-230h-95h-95v230v230h95h95zM2850,4330v-230h-95h-95v230v230h95h95z"></path><path d="M3285,4741c-11,-5 -29,-19 -40,-31c-19,-21 -20,-36 -20,-381v-359l28,-27l27,-28h410h410l27,28l28,27v360v360l-28,27l-27,28l-398,2c-218,1 -406,-2 -417,-6zM3600,4330v-230h-95h-95v230v230h95h95zM3970,4330v-230h-95h-95v230v230h95h95z"></path><path d="M1029,3615c-48,-26 -50,-45 -47,-418l3,-347l28,-27l27,-28l358,-3c412,-4 450,-1 486,35l26,26v358v358l-24,28l-24,28l-404,2c-335,2 -407,0 -429,-12zM1350,3210v-230h-90h-90v230v230h90h90zM1730,3210v-230h-95h-95v230v230h95h95z"></path><path d="M2148,3614c-46,-24 -50,-59 -46,-425c3,-377 2,-368 77,-389c49,-13 734,-13 783,0c69,20 68,13 68,416v362l-31,26l-31,26h-396c-330,-1 -402,-3 -424,-16zM2478,3213l-3,-228l-92,-3l-93,-3v231v230h95h95zM2850,3210v-230h-95h-95v230v230h95h95z"></path><path d="M3258,3601l-33,-29l-3,-344c-2,-312 -1,-346 15,-378c29,-57 45,-59 453,-59c408,0 424,2 453,59c16,32 17,66 15,378l-3,344l-33,29l-32,29h-400h-400zM3600,3210v-230h-95h-95v230v230h95h95zM3970,3210v-230h-95h-95v230v230h95h95z"></path><path d="M1054,2513c-12,-2 -32,-15 -45,-29l-24,-26l-3,-349c-3,-383 -1,-394 55,-418c21,-8 139,-11 427,-9l398,3l24,28l24,28v355c0,396 0,395 -69,414c-34,9 -740,12 -787,3zM1350,2100v-230h-90h-90v230v230h90h90zM1730,2100v-230h-95h-95v230v230h95h95z"></path><path d="M2174,2509c-17,-5 -39,-18 -50,-30c-18,-20 -19,-42 -22,-365c-3,-378 0,-400 57,-423c19,-8 146,-11 423,-9l396,3l26,24l26,24v362c0,402 1,395 -68,415c-46,12 -744,12 -788,-1zM2480,2100v-230h-95h-95v230v230h95h95zM2850,2100v-230h-95h-95v230v230h95h95z"></path><path d="M3290,2507c-24,-8 -41,-23 -53,-47c-16,-32 -17,-66 -15,-378l3,-344l33,-29l32,-29h400h400l32,29l33,29l3,344c2,312 1,346 -15,378c-12,24 -29,39 -53,47c-49,17 -751,17 -800,0zM3600,2100v-230h-95h-95v230v230h95h95zM3970,2100v-230h-95h-95v230v230h95h95z"></path><path d="M2174,1393c-12,-2 -32,-15 -45,-29l-24,-26v-359v-359l28,-27l27,-28h411h411l24,28l24,28v355c0,235 -4,362 -11,376c-24,45 -54,48 -451,47c-205,-1 -383,-4 -394,-6zM2480,980v-230h-95h-95v230v230h95h95zM2850,980v-230h-95h-95v230v230h95h95z"></path><path d="M3294,1393c-12,-2 -32,-15 -45,-29l-24,-26v-359v-359l28,-27l27,-28h410h410l27,28l28,27v360v360l-28,27l-27,28l-393,1c-215,1 -402,0 -413,-3zM3600,980v-230h-95h-95v230v230h95h95zM3970,980v-230h-95h-95v230v230h95h95z"></path></g></g></g></svg>