<svg version="1.1" xmlns="http://www.w3.org/2000/svg" xmlns:xlink="http://www.w3.org/1999/xlink" width="512.000000pt" height="512.000000pt" viewBox="0,0,256,256"><g fill="#ffffff" fill-rule="nonzero" stroke="none" stroke-width="1" stroke-linecap="butt" stroke-linejoin="miter" stroke-miterlimit="10" stroke-dasharray="" stroke-dashoffset="0" font-family="none" font-weight="none" font-size="none" text-anchor="none" style="mix-blend-mode: normal"><g transform="translate(0,-0.0875) scale(0.5,0.5)"><g transform="translate(0,512) scale(0.1,-0.1)"><path d="M1920,5006v-116h-440h-440v-2250v-2250h160h160v2090v2090h280h280v-2286v-2286l28,6c15,4 491,89 1057,191c567,102 1040,187 1053,190l22,5v2170v2170l-22,5c-13,2 -489,88 -1058,191c-569,102 -1045,188 -1057,191c-23,5 -23,4 -23,-111zM2389,2696c60,-54 77,-151 39,-226c-29,-55 -65,-82 -111,-82c-75,0 -127,69 -127,169c1,135 115,215 199,139z"></path></g></g></g></svg>