<svg version="1.1" xmlns="http://www.w3.org/2000/svg" xmlns:xlink="http://www.w3.org/1999/xlink" width="512.000000pt" height="512.000000pt" viewBox="0,0,256,256"><g fill="#ffffff" fill-rule="nonzero" stroke="none" stroke-width="1" stroke-linecap="butt" stroke-linejoin="miter" stroke-miterlimit="10" stroke-dasharray="" stroke-dashoffset="0" font-family="none" font-weight="none" font-size="none" text-anchor="none" style="mix-blend-mode: normal"><g transform="scale(0.5,0.5)"><g transform="translate(0,512) scale(0.1,-0.1)"><path d="M29,5091l-29,-29v-276c0,-180 4,-283 11,-299c17,-37 45,-47 149,-49l95,-3l3,-2132l2,-2133h-101c-98,0 -101,-1 -130,-29c-38,-38 -38,-74 0,-112l29,-29h2502h2502l29,29c17,18 29,40 29,56c0,16 -12,38 -29,56c-29,28 -32,29 -130,29h-101l2,2132l3,2133l95,3c104,2 132,12 149,49c7,16 11,119 11,299v276l-29,29l-29,29h-2502h-2502zM4950,4780v-170h-2390h-2390v170v170h2390h2390zM4690,2305v-2135h-85h-85v2023v2024l-26,24l-26,24h-1908h-1908l-26,-24l-26,-24v-2024v-2023h-85h-85v2135v2135h2130h2130zM4350,3840v-260h-1790h-1790v260v260h1790h1790zM4350,3155v-255h-1790h-1790v255v255h1790h1790zM4350,2475v-255h-1790h-1790v255v255h1790h1790zM4350,1795v-255h-1790h-1790v255v255h1790h1790zM4350,1110v-260h-1790h-1790v260v260h1790h1790zM4350,425v-255h-1790h-1790v255v255h1790h1790z"></path><path d="M2283,423c-31,-6 -63,-50 -63,-85c0,-17 10,-39 25,-53l24,-25h291h291l24,25c32,31 32,75 1,112l-24,28l-274,1c-150,1 -283,0 -295,-3z"></path></g></g></g></svg>