<?xml version="1.0" standalone="no"?>
<!DOCTYPE svg PUBLIC "-//W3C//DTD SVG 20010904//EN"
 "http://www.w3.org/TR/2001/REC-SVG-20010904/DTD/svg10.dtd">
<svg version="1.0" xmlns="http://www.w3.org/2000/svg"
 width="20px" height="20px" viewBox="0 0 512.000000 512.000000"
 preserveAspectRatio="xMidYMid meet">

<g transform="translate(0.000000,512.000000) scale(0.100000,-0.100000)"
fill="#ffffff" stroke="none">
<path d="M2375 4964 c-135 -13 -297 -41 -410 -69 -847 -213 -1527 -893 -1740
-1740 -55 -219 -69 -342 -69 -595 0 -253 14 -376 69 -595 170 -676 642 -1256
1270 -1565 175 -86 296 -130 472 -175 225 -56 338 -69 593 -69 253 0 376 14
595 69 333 84 656 247 931 471 118 96 301 286 393 408 199 264 338 553 416
861 55 219 69 342 69 595 0 253 -14 376 -69 595 -235 935 -1022 1644 -1985
1790 -100 15 -450 28 -535 19z m386 -325 c397 -40 755 -184 1084 -432 103 -78
284 -259 362 -362 333 -440 485 -962 433 -1486 -73 -722 -510 -1352 -1160
-1673 -1032 -510 -2280 -83 -2794 955 -395 798 -235 1761 399 2394 173 173
340 293 561 401 346 169 742 242 1115 203z"/>
<path d="M2455 4149 c-88 -13 -160 -36 -239 -76 -452 -227 -568 -811 -237
-1194 24 -27 42 -51 40 -53 -2 -2 -50 -27 -105 -56 -384 -199 -659 -581 -729
-1015 -8 -49 -15 -129 -15 -176 0 -73 3 -91 23 -119 52 -77 138 -100 211 -58
62 36 77 72 87 201 20 263 116 488 288 670 135 143 320 254 508 304 87 24 117
27 268 27 143 1 183 -3 256 -21 409 -104 716 -423 799 -832 11 -54 20 -130 20
-168 0 -129 69 -209 173 -200 54 5 91 27 125 77 19 28 22 46 22 119 0 322
-145 668 -383 918 -112 117 -228 205 -361 273 -55 29 -103 54 -105 56 -2 2 16
26 40 53 125 145 189 316 189 506 0 413 -315 744 -732 769 -46 3 -110 1 -143
-5z m240 -334 c68 -19 163 -82 208 -137 20 -24 51 -75 69 -114 31 -65 33 -75
33 -179 0 -106 -1 -113 -37 -188 -88 -185 -283 -290 -475 -258 -152 26 -274
118 -341 258 -36 75 -37 82 -37 188 0 106 1 113 37 188 100 209 316 306 543
242z"/>
</g>
</svg>
