<svg version="1.1" xmlns="http://www.w3.org/2000/svg" xmlns:xlink="http://www.w3.org/1999/xlink" width="15px" height="15px" viewBox="0,0,256,256"><g fill="#5c7cfa" fill-rule="nonzero" stroke="none" stroke-width="1" stroke-linecap="butt" stroke-linejoin="miter" stroke-miterlimit="10" stroke-dasharray="" stroke-dashoffset="0" font-family="none" font-weight="none" font-size="none" text-anchor="none" style="mix-blend-mode: normal"><g transform="scale(0.5,0.5)"><g transform="translate(0,512) scale(0.1,-0.1)"><path d="M3884,5086c-24,-24 -34,-43 -34,-66c0,-23 10,-41 34,-66l34,-34h203h204l-495,-495l-495,-495l-200,200c-201,200 -201,200 -245,200h-45l-921,-922c-640,-640 -923,-931 -926,-948c-10,-69 30,-120 96,-120h41l877,877l878,878l197,-197c198,-196 226,-217 275,-203c13,4 265,248 561,543l537,537l1,-165c0,-193 8,-227 60,-254c42,-23 79,-17 115,19l24,24v326c0,205 -4,333 -10,346c-25,46 -48,49 -401,49h-331z"></path><path d="M3800,3629c-60,-27 -107,-74 -136,-134l-24,-50v-1622v-1623h-280h-280v888c0,573 -4,900 -10,924c-18,62 -71,128 -130,162l-55,31h-320c-309,0 -321,-1 -361,-22c-54,-29 -102,-79 -128,-133c-21,-45 -21,-51 -24,-947l-3,-903h-274h-274l-3,478c-3,473 -3,477 -26,527c-32,69 -86,121 -149,145c-49,18 -79,20 -342,20c-317,0 -345,-4 -414,-61c-20,-17 -49,-52 -65,-77l-27,-47l-3,-492l-3,-493h-125c-164,0 -204,-19 -204,-100c0,-42 15,-67 50,-85c26,-13 302,-15 2370,-15c2068,0 2344,2 2370,15c35,18 50,43 50,85c0,80 -40,100 -200,100h-120v1623v1622l-24,50c-29,63 -68,102 -131,131c-49,23 -56,24 -355,24c-285,0 -308,-2 -350,-21zM4442,3433c17,-15 18,-79 18,-1625v-1608h-310h-310v1607c0,1481 1,1608 17,1625c15,17 37,18 291,18c242,0 278,-2 294,-17zM2857,1988l23,-21v-884v-883h-315h-315v880v881l25,24l24,25h267c261,0 268,-1 291,-22zM1268,1154l22,-15v-470v-469h-310h-310v465c0,452 1,466 20,485c19,19 33,20 288,20c226,0 271,-2 290,-16z"></path><path d="M733,2183c-12,-2 -33,-16 -47,-30c-58,-58 -14,-163 68,-163c105,0 137,146 41,186c-19,8 -36,13 -37,13c-2,-1 -13,-4 -25,-6z"></path></g></g></g></svg>