<svg version="1.1" xmlns="http://www.w3.org/2000/svg" xmlns:xlink="http://www.w3.org/1999/xlink" width="20px" height="20px" viewBox="0,0,256,256"><g fill="#ffffff" fill-rule="nonzero" stroke="none" stroke-width="1" stroke-linecap="butt" stroke-linejoin="miter" stroke-miterlimit="10" stroke-dasharray="" stroke-dashoffset="0" font-family="none" font-weight="none" font-size="none" text-anchor="none" style="mix-blend-mode: normal"><g transform="translate(0.04423,0.05577) scale(0.5,0.5)"><g transform="translate(0,512) scale(0.1,-0.1)"><path d="M319,5106c-106,-28 -209,-121 -251,-224l-23,-57v-1770v-1770l23,-57c33,-81 108,-160 190,-200l67,-33l780,-3c611,-1 785,1 805,11c14,6 33,29 43,49c16,33 16,40 4,71c-30,71 23,67 -822,67h-760l-39,23c-48,27 -75,62 -86,113c-6,22 -10,646 -10,1467v1427h1985h1985v-1270c0,-698 -3,-1270 -8,-1270c-4,0 -82,43 -172,96c-214,125 -233,134 -272,134c-45,0 -95,-33 -115,-75c-17,-35 -16,-47 16,-308c18,-150 35,-287 38,-304l5,-33h-496h-496l-32,-29c-27,-24 -33,-36 -33,-71c0,-35 6,-47 33,-71l32,-29h508h508l28,-242c31,-267 45,-317 95,-342c40,-21 99,-20 136,2c17,11 57,53 90,95c33,43 62,77 65,76c3,0 81,-117 174,-259c93,-143 182,-272 198,-287c24,-23 38,-28 81,-28c49,0 61,6 232,119c99,65 192,130 208,144c34,32 48,81 36,124c-5,18 -87,152 -183,298c-96,145 -173,266 -171,268c1,2 48,16 104,31c106,30 133,46 158,95c17,34 13,95 -10,129c-8,12 -137,94 -286,182l-271,159l-2,1635l-3,1636l-23,58c-33,81 -114,166 -194,203l-63,29l-1880,2c-1469,1 -1890,-1 -1926,-11zM4133,4887c67,-51 72,-69 72,-277v-185h-1980h-1980v185c0,195 5,220 51,262c57,51 -69,48 1940,45l1861,-2zM4387,1335c160,-93 289,-173 287,-176c-2,-4 -21,-10 -41,-14c-102,-18 -163,-72 -163,-143c0,-41 14,-69 110,-212c42,-63 120,-182 173,-263l97,-148l-116,-75c-95,-62 -119,-73 -129,-62c-6,7 -92,135 -189,285c-188,286 -203,303 -275,303c-48,0 -77,-19 -128,-84c-28,-35 -49,-54 -50,-46c-7,38 -113,914 -113,930c0,16 21,7 123,-53c68,-40 254,-148 414,-242z"></path><path d="M469,4731c-38,-38 -39,-87 -4,-129c47,-57 133,-44 161,23c42,100 -80,182 -157,106z"></path><path d="M837,4735c-35,-36 -41,-70 -20,-113c48,-99 183,-62 183,49c0,76 -108,118 -163,64z"></path><path d="M1205,4736c-47,-48 -44,-111 8,-149c42,-32 95,-26 130,13c25,28 28,39 24,74c-8,54 -44,86 -98,86c-29,0 -47,-7 -64,-24z"></path><path d="M884,3800c-53,-21 -54,-25 -54,-423c0,-233 4,-375 10,-388c25,-47 46,-49 422,-49c388,0 391,1 421,60c16,32 17,67 15,393l-3,359l-33,29l-32,29l-363,-1c-199,0 -372,-4 -383,-9zM1500,3375v-235h-235h-235v235v235h235h235z"></path><path d="M2168,3794c-54,-29 -66,-102 -24,-151l24,-28l696,-3l695,-2l33,29c27,24 33,36 33,71c0,35 -6,47 -33,71l-32,29h-683c-582,-1 -686,-3 -709,-16z"></path><path d="M2175,3168c-62,-34 -74,-110 -26,-159l29,-29h690h690l30,25c39,32 48,74 27,114c-32,63 -7,61 -747,61c-470,-1 -679,-4 -693,-12z"></path><path d="M890,2539c-63,-25 -81,-111 -33,-161l27,-28h1338c1484,0 1375,-5 1398,65c9,26 8,41 -4,70c-29,69 59,65 -1393,64c-830,0 -1317,-4 -1333,-10z"></path><path d="M857,1882c-55,-57 -24,-150 54,-166c18,-3 514,-6 1103,-5c802,0 1080,3 1106,12c49,17 76,72 60,121c-23,71 63,66 -1178,66h-1118z"></path><path d="M2265,1178c-34,-18 -55,-51 -55,-86c0,-44 14,-68 50,-87c43,-22 76,-18 112,14c27,24 33,36 33,71c0,73 -79,122 -140,88z"></path></g></g></g></svg>