<?xml version="1.0" standalone="no"?>
<!DOCTYPE svg PUBLIC "-//W3C//DTD SVG 20010904//EN"
 "http://www.w3.org/TR/2001/REC-SVG-20010904/DTD/svg10.dtd">
<svg version="1.0" xmlns="http://www.w3.org/2000/svg"
 width="20px" height="20px" viewBox="0 0 512.000000 512.000000"
 preserveAspectRatio="xMidYMid meet">

<g transform="translate(0.000000,512.000000) scale(0.100000,-0.100000)"
fill="#ffffff" stroke="none">
<path d="M1844 5054 c-45 -7 -125 -27 -177 -44 -326 -104 -556 -290 -687 -555
-75 -150 -109 -314 -110 -517 l0 -78 -80 0 c-92 0 -123 -11 -149 -54 -71 -116
-66 -306 12 -438 35 -61 118 -135 182 -164 49 -23 56 -30 65 -67 62 -246 220
-469 449 -632 30 -22 50 -40 45 -42 -5 -1 -62 -18 -127 -38 -165 -49 -365
-137 -399 -175 -38 -41 -38 -89 0 -131 37 -42 76 -40 177 6 164 76 424 157
576 179 l46 7 62 -166 c33 -92 61 -174 61 -183 0 -9 -45 -255 -101 -545 l-101
-528 41 -116 41 -116 -102 7 c-213 15 -679 77 -760 102 -15 4 -17 28 -20 224
l-3 220 -27 27 c-41 41 -100 39 -139 -5 l-29 -32 0 -190 c0 -176 -1 -190 -18
-190 -18 0 -223 56 -314 86 -56 18 -58 24 -33 167 32 177 82 321 166 468 60
105 64 146 20 190 -22 22 -39 29 -67 29 -53 0 -97 -50 -166 -191 -91 -183
-143 -362 -168 -574 -24 -212 -19 -219 210 -288 385 -116 744 -186 1200 -234
131 -14 261 -17 635 -18 493 0 623 8 955 55 74 11 140 20 147 20 7 0 31 -26
55 -57 137 -187 351 -330 588 -395 75 -20 106 -23 270 -22 172 0 192 2 275 28
294 89 526 279 659 541 263 518 56 1152 -463 1419 -278 143 -609 154 -898 30
l-81 -35 -89 67 c-178 134 -387 241 -626 318 l-128 42 73 56 c207 159 372 397
419 605 12 51 13 52 85 87 124 62 210 184 234 330 18 111 -15 243 -72 291 -27
23 -38 25 -117 25 l-88 0 -7 108 c-14 203 -56 373 -127 514 -154 305 -444 509
-813 573 -109 19 -349 18 -462 -1z m437 -199 c388 -68 647 -309 735 -685 18
-74 36 -274 27 -296 -9 -23 -932 -15 -1043 10 -107 23 -193 53 -285 99 -97 48
-138 76 -230 156 -38 33 -82 63 -98 67 -62 13 -117 -37 -117 -108 -1 -120 -57
-198 -162 -229 l-28 -8 0 127 c0 138 15 227 53 322 112 276 391 482 740 545
99 18 306 18 408 0z m-776 -986 c121 -81 270 -141 447 -181 86 -20 131 -22
591 -25 l497 -4 0 -179 c0 -193 -12 -282 -53 -390 -146 -386 -607 -661 -1026
-612 -343 40 -655 252 -803 546 -66 131 -78 198 -78 431 l0 202 58 13 c123 27
236 107 278 199 11 22 21 40 24 40 3 0 32 -18 65 -40z m-635 -330 c0 -76 -4
-118 -10 -114 -24 15 -62 98 -67 149 -8 73 -1 86 42 86 l35 0 0 -121z m2460
67 c0 -30 -5 -67 -11 -83 -13 -36 -59 -103 -70 -103 -5 0 -9 54 -9 120 l0 120
45 0 45 0 0 -54z m-738 -1320 c151 -35 334 -98 463 -161 107 -51 325 -188 325
-203 0 -4 -25 -32 -56 -62 -286 -279 -394 -714 -269 -1084 9 -26 15 -50 13
-51 -14 -15 -593 -73 -605 -62 -3 4 11 52 31 107 20 56 36 112 36 125 0 13
-45 259 -101 546 l-100 523 63 173 c43 119 68 173 78 173 8 0 63 -11 122 -24z
m-399 -105 c-18 -52 -36 -98 -39 -103 -3 -4 -45 -8 -94 -8 l-88 0 -31 81 c-53
139 -67 124 122 124 l164 0 -34 -94z m2077 -246 c100 -26 256 -105 335 -172
137 -115 240 -277 286 -448 29 -105 31 -308 6 -405 -42 -157 -111 -282 -216
-393 -171 -178 -376 -267 -620 -267 -509 0 -907 442 -851 944 44 385 329 686
717 756 69 13 267 4 343 -15z m-2125 -87 c3 -13 46 -230 94 -483 l89 -460 -46
-127 -46 -128 -173 0 c-154 0 -173 2 -181 18 -5 9 -26 67 -47 128 l-39 110 88
460 c48 252 90 469 93 482 5 20 10 22 84 22 73 0 79 -2 84 -22z"/>
<path d="M3993 1786 c-26 -22 -28 -31 -31 -109 l-4 -85 -46 -17 c-60 -23 -117
-77 -150 -139 -51 -99 -29 -238 49 -315 41 -40 85 -60 213 -96 113 -33 146
-54 146 -95 0 -46 -38 -81 -92 -87 -77 -9 -112 3 -168 57 -41 40 -59 50 -85
50 -45 0 -92 -41 -101 -85 -13 -70 80 -174 189 -211 l47 -16 0 -59 c0 -72 18
-112 59 -129 38 -15 75 -7 107 25 21 21 24 33 24 94 l0 69 52 18 c75 25 161
111 182 183 32 108 12 221 -49 284 -39 40 -108 69 -239 99 -61 14 -97 28 -113
44 -31 31 -30 74 2 104 34 32 113 33 170 3 99 -54 102 -54 139 -39 19 8 39 23
45 34 14 27 13 82 -2 109 -21 38 -92 82 -169 107 -15 4 -18 18 -18 81 0 108
-23 144 -92 145 -25 0 -46 -8 -65 -24z"/>
<path d="M529 2021 c-22 -22 -29 -39 -29 -68 1 -97 112 -136 175 -61 23 27 26
39 22 72 -12 84 -108 117 -168 57z"/>
</g>
</svg>
